<svg xmlns="http://www.w3.org/2000/svg" viewBox="0 0 128 128" width="128" height="128">
  <defs>
    <linearGradient id="s" x1="0" y1="0" x2=".8" y2="1">
      <stop offset="0%" stop-color="#ff7e3a"/>
      <stop offset="100%" stop-color="#d94410"/>
    </linearGradient>
    <linearGradient id="c" x1="1" y1="0" x2="0" y2="1">
      <stop offset="0%" stop-color="#ffaa66"/>
      <stop offset="100%" stop-color="#ff6020"/>
    </linearGradient>
    <radialGradient id="e" cx=".4" cy=".35" r=".5">
      <stop offset="0%" stop-color="#fff"/>
      <stop offset="100%" stop-color="#e8e8ec"/>
    </radialGradient>
  </defs>
  <!-- Circle bg -->
  <circle cx="64" cy="64" r="62" fill="#0f0f18"/>
  <circle cx="64" cy="64" r="62" fill="none" stroke="#1e1e2e" stroke-width="2"/>
  
  <!-- Antennae -->
  <path d="M56 52 Q48 38 40 30" fill="none" stroke="#ff8844" stroke-width="2" stroke-linecap="round" opacity=".8"/>
  <path d="M72 52 Q80 38 88 30" fill="none" stroke="#ff8844" stroke-width="2" stroke-linecap="round" opacity=".8"/>
  <circle cx="40" cy="30" r="2.5" fill="#ffaa66"/>
  <circle cx="88" cy="30" r="2.5" fill="#ffaa66"/>
  
  <!-- Claws -->
  <path d="M46 60 Q30 52 22 45" fill="none" stroke="url(#c)" stroke-width="7" stroke-linecap="round"/>
  <ellipse cx="20" cy="44" rx="10" ry="7" fill="url(#c)" transform="rotate(-25 20 44)"/>
  <path d="M16 40 Q10 34 7 30 Q6 28 10 30 Q13 32 16 36 Z" fill="url(#c)"/>
  <path d="M17 48 Q10 50 7 48 Q5 46 9 44 Q12 42 17 44 Z" fill="#ff7733"/>

  <path d="M82 60 Q98 52 106 45" fill="none" stroke="url(#c)" stroke-width="7" stroke-linecap="round"/>
  <ellipse cx="108" cy="44" rx="10" ry="7" fill="url(#c)" transform="rotate(25 108 44)"/>
  <path d="M112 40 Q118 34 121 30 Q122 28 118 30 Q115 32 112 36 Z" fill="url(#c)"/>
  <path d="M111 48 Q118 50 121 48 Q123 46 119 44 Q116 42 111 44 Z" fill="#ff7733"/>

  <!-- Body -->
  <ellipse cx="64" cy="72" rx="24" ry="18" fill="url(#s)"/>
  <!-- Head -->
  <ellipse cx="64" cy="58" rx="18" ry="13" fill="url(#s)"/>
  <!-- Rostrum -->
  <path d="M60 48 L64 40 L68 48" fill="#ffa060"/>
  
  <!-- Eyes -->
  <path d="M56 54 Q54 46 52 42" fill="none" stroke="#e04510" stroke-width="3" stroke-linecap="round"/>
  <path d="M72 54 Q74 46 76 42" fill="none" stroke="#e04510" stroke-width="3" stroke-linecap="round"/>
  <circle cx="51" cy="41" r="5.5" fill="url(#e)" stroke="#d94410" stroke-width="1"/>
  <circle cx="77" cy="41" r="5.5" fill="url(#e)" stroke="#d94410" stroke-width="1"/>
  <circle cx="52" cy="41.5" r="2.8" fill="#1a1a2e"/>
  <circle cx="78" cy="41.5" r="2.8" fill="#1a1a2e"/>
  <circle cx="53" cy="40" r="1.2" fill="#fff"/>
  <circle cx="79" cy="40" r="1.2" fill="#fff"/>
  
  <!-- Smile -->
  <path d="M59 63 Q64 67 69 63" fill="none" stroke="#c03810" stroke-width="1.5" stroke-linecap="round"/>
  
  <!-- Legs -->
  <line x1="46" y1="70" x2="36" y2="78" stroke="#e04510" stroke-width="2.5" stroke-linecap="round"/>
  <line x1="45" y1="76" x2="34" y2="84" stroke="#e04510" stroke-width="2" stroke-linecap="round"/>
  <line x1="82" y1="70" x2="92" y2="78" stroke="#e04510" stroke-width="2.5" stroke-linecap="round"/>
  <line x1="83" y1="76" x2="94" y2="84" stroke="#e04510" stroke-width="2" stroke-linecap="round"/>
  
  <!-- Tail -->
  <ellipse cx="64" cy="88" rx="18" ry="6" fill="#d94410"/>
  <ellipse cx="64" cy="95" rx="14" ry="4.5" fill="#c53d0e" opacity=".8"/>
  <ellipse cx="64" cy="101" rx="10" ry="3.5" fill="#b83508" opacity=".65"/>
  <path d="M56 104 Q50 112 47 116 Q46 118 49 116 Q52 114 56 108 Z" fill="#d94410" opacity=".6"/>
  <path d="M64 105 Q64 114 64 117 Q64 119 66 116 Q67 113 66 108 Z" fill="#c53d0e" opacity=".6"/>
  <path d="M72 104 Q78 112 81 116 Q82 118 79 116 Q76 114 72 108 Z" fill="#d94410" opacity=".6"/>
</svg>
